<svg xmlns="http://www.w3.org/2000/svg" xmlns:xlink="http://www.w3.org/1999/xlink" version="1.1" x="0px" y="0px" viewBox="0 0 100 100" enable-background="new 0 0 100 100" xml:space="preserve"><path fill="#dddddd" d="M87.671,46.509H95C93.308,24.489,75.725,6.861,53.732,5.115v7.342C71.693,14.162,86.018,28.522,87.671,46.509z"/><path fill="#dddddd" d="M76.619,46.509h7.376c-1.631-15.97-14.327-28.711-30.273-30.387v7.392C65.629,25.118,75.055,34.583,76.619,46.509z"/><path fill="#dddddd" d="M65.505,46.509h7.427c-1.51-9.905-9.317-17.749-19.207-19.298v7.431C59.576,36.01,64.174,40.643,65.505,46.509z"/><circle fill="#dddddd" cx="49.92" cy="50.162" r="8.167"/><g><path fill="#dddddd" d="M46.492,34.723v-11.44c-13.271,1.73-23.561,13.089-23.561,26.833c0,14.935,12.143,27.086,27.07,27.086   c13.706,0,25.033-10.254,26.8-23.493H65.326C63.685,60.661,57.444,65.857,50,65.857c-8.691,0-15.762-7.075-15.762-15.771   C34.238,42.599,39.486,36.323,46.492,34.723z"/><path fill="#dddddd" d="M83.847,53.708c-1.802,17.099-16.288,30.469-33.845,30.469c-18.771,0-34.042-15.279-34.042-34.062   c0-17.597,13.404-32.119,30.532-33.882V5.208C23.315,7.007,5,26.439,5,50.086c0,24.83,20.186,45.029,45,45.029   c23.593,0,42.989-18.267,44.841-41.407H83.847z"/></g></svg>
